<svg xmlns="http://www.w3.org/2000/svg" viewBox="0 0 490 162">
  <g fill="none" fill-rule="evenodd" transform="translate(0 -1)">
    <path fill="#E65343" d="M346.978961,83.3 C351.694181,83.3 355.352097,84.6889794 357.849823,87.4290323 C361.812341,91.7746695 361.299258,97.8775145 361.276243,98.1360867 L361.281658,112.786705 C361.281658,116.693718 362.383636,119.765447 364.559162,121.92202 C367.917548,125.249189 372.861783,125.418407 373.423302,125.426562 L399.041953,125.42658 C399.541993,119.592861 404.449717,115 410.409667,115 C416.700687,115 421.819334,120.117292 421.819334,126.409667 C421.819334,132.700687 416.700687,137.81798 410.409667,137.81798 C404.704968,137.81798 399.964297,133.610099 399.13019,128.134855 L373.439966,128.134521 C372.791505,128.134521 366.882251,128.015389 362.676053,123.867403 C359.953599,121.182856 358.574096,117.454543 358.574096,112.786705 L358.574096,98.0115389 C358.583573,97.8382549 358.993768,92.6844104 355.835397,89.2376838 C353.871061,87.0946483 350.891389,86.0075621 346.978961,86.0075621 L85.7696118,86.0075621 C85.0209709,86.0075621 84.4158308,85.402422 84.4158308,84.6537811 C84.4158308,83.9051401 85.0209709,83.3 85.7696118,83.3 L346.978961,83.3 Z M410.409667,120.415124 C407.105087,120.415124 404.415124,123.103733 404.415124,126.409667 C404.415124,129.714246 407.105087,132.402856 410.409667,132.402856 C413.714246,132.402856 416.404209,129.714246 416.404209,126.409667 C416.404209,123.103733 413.714246,120.415124 410.409667,120.415124 Z"/>
    <path fill="#1143D3" d="M359.591243,-4.79426232e-09 C373.654481,-4.79426232e-09 385.097788,11.4392657 385.097788,25.5007125 C385.097788,39.5607343 373.654481,51 359.591243,51 C346.270667,51 335.300617,40.7370188 334.179137,27.704963 L325.277862,27.7040206 C321.51294,27.7040206 318.622234,28.7653486 316.683871,30.8596126 C313.488739,34.3112948 313.833576,39.5381666 313.837617,39.589543 L313.841658,70.6722594 C313.841658,75.352919 312.46635,79.0871714 309.757492,81.7682078 C305.603281,85.8796711 299.797622,86 299.136235,86 L5.34702051,86 C4.60346519,86 4,85.3956514 4,84.6479897 C4,83.900328 4.60346519,83.2959794 5.34702051,83.2959794 L299.151322,83.2955724 C299.727125,83.2872821 304.574474,83.1170634 307.882439,79.826721 C310.049795,77.6729687 311.147617,74.5917372 311.147617,70.6722594 L311.147617,39.6922958 C311.131453,39.5381666 310.699059,33.3729997 314.692975,29.0384547 C317.162064,26.3587703 320.722239,25 325.277862,25 L334.089533,25.0004591 C334.357086,11.1689602 345.695153,-4.79426232e-09 359.591243,-4.79426232e-09 Z M404.408977,2.02562453 L404.408977,43.0451909 C404.408977,45.5375018 405.044063,47.4449794 406.318298,48.7716848 C407.589825,50.099744 409.390816,50.761743 411.721271,50.761743 C413.996207,50.761743 415.783656,50.099744 417.08362,48.7716848 C418.383583,47.4449794 419.032211,45.5375018 419.032211,43.0451909 L419.032211,2.02562453 L431.219368,2.02562453 L431.219368,43.1277715 C431.219368,45.9436362 430.772505,48.4752068 429.880134,50.7211296 C428.98641,52.9684061 427.686446,54.8772374 425.97889,56.4476235 C424.274042,58.0193633 422.229308,59.2228747 419.846042,60.0622189 C417.461422,60.9002094 414.753165,61.3212353 411.721271,61.3212353 C408.742188,61.3212353 406.047472,60.9002094 403.635769,60.0622189 C401.225421,59.2228747 399.167145,58.0193633 397.462297,56.4476235 C395.756095,54.8772374 394.456132,52.9684061 393.562407,50.7211296 C392.668682,48.4752068 392.22182,45.9436362 392.22182,43.1277715 L392.22182,2.02562453 L404.408977,2.02562453 Z M482,2.0264368 L482,13.3981978 L466.561581,13.3981978 L466.561581,60.5097789 L454.374424,60.5097789 L454.374424,13.3981978 L438.938713,13.3981978 L438.938713,2.0264368 L482,2.0264368 Z M359.591243,11.4489796 C351.842305,11.4489796 345.536616,17.7519491 345.536616,25.5007101 C345.536616,33.2480509 351.842305,39.5510204 359.591243,39.5510204 C367.340181,39.5510204 373.64587,33.2480509 373.64587,25.5007101 C373.64587,17.7519491 367.340181,11.4489796 359.591243,11.4489796 Z"/>
    <path fill="#1143D3" d="M220.142634,1.21470968 C223.173749,1.21470968 225.935463,1.64791962 228.427774,2.5143395 C230.917377,3.37940561 233.057705,4.61134638 234.844696,6.20880804 C236.630333,7.80762348 238.012544,9.7299926 238.985912,11.9759154 C239.960635,14.2245457 240.44935,16.7290407 240.44935,19.4907541 L228.26532,19.4907541 C228.26532,17.2150481 227.534278,15.4294109 226.070841,14.1297811 C224.608757,12.8287975 222.630883,12.1789825 220.142634,12.1789825 C217.596171,12.1789825 215.579038,12.8287975 214.091232,14.1297811 C212.600719,15.4294109 211.85614,17.2150481 211.85614,19.4907541 L211.85614,43.0451909 C211.85614,45.3195431 212.573644,47.1065341 214.008652,48.4061639 C215.443659,49.7057938 217.460793,50.3556087 220.061407,50.3556087 C222.605161,50.3556087 224.608757,49.6787181 226.070841,48.3249371 C227.534278,46.971156 228.26532,45.2125944 228.26532,43.0451909 L240.44935,43.0451909 C240.44935,45.8069043 239.960635,48.312753 238.985912,50.5586758 C238.012544,52.8073062 236.630333,54.7296753 234.844696,56.327137 C233.057705,57.9232448 230.917377,59.1551856 228.427774,60.0216055 C225.935463,60.8880254 223.146674,61.3212353 220.061407,61.3212353 C216.974786,61.3212353 214.184643,60.8880254 211.693686,60.0216055 C209.202729,59.1551856 207.063755,57.9232448 205.276764,56.327137 C203.491126,54.7296753 202.108916,52.8073062 201.135547,50.5586758 C200.160825,48.312753 199.67211,45.8069043 199.67211,43.0451909 L199.67211,19.4907541 C199.67211,16.7290407 200.160825,14.2245457 201.135547,11.9759154 C202.108916,9.7299926 203.491126,7.80762348 205.276764,6.20880804 C207.063755,4.61134638 209.216267,3.37940561 211.735653,2.5143395 C214.253686,1.64791962 217.054659,1.21470968 220.142634,1.21470968 Z M24.120588,2.02575992 C27.1517039,2.02575992 29.8876954,2.37909677 32.3231475,3.08170915 C34.7599535,3.7856753 36.8312385,4.78747329 38.5370026,6.08710312 C40.2427668,7.38673295 41.5559344,8.95711898 42.4765056,10.7982612 C43.3970767,12.6394035 43.8573622,14.6971507 43.8573622,16.9715029 C43.8573622,20.60099 42.8420264,23.5238033 40.8113548,25.7440042 C38.7806832,27.9642052 35.9797102,29.2367594 32.4043744,29.5616668 L32.4043744,30.4551623 C36.3046177,30.7259186 39.3628091,32.0255484 41.58301,34.3540518 C43.803211,36.683909 44.9133115,39.7421005 44.9133115,43.5326875 C44.9133115,46.1319471 44.4394881,48.4753421 43.4918414,50.5588112 C42.5441946,52.6449878 41.1904135,54.4306251 39.4304981,55.9197842 C37.6705828,57.4089434 35.5316087,58.5474733 33.0135759,59.3313125 C30.4968969,60.1165056 27.6932163,60.5091021 24.6065955,60.5091021 L4.54356002,60.5091021 L4.54356002,2.02575992 L24.120588,2.02575992 Z M72.9342782,2.02589529 C76.1305553,2.02589529 78.9992173,2.44692121 81.5456795,3.28491169 C84.0907879,4.12560973 86.2568377,5.31558329 88.0438287,6.85889371 C89.8308197,8.40220412 91.2103226,10.270422 92.1863987,12.4635473 C93.1611211,14.6566727 93.6484823,17.134092 93.6484823,19.8958054 C93.6484823,23.6863924 92.7279112,26.9354669 90.8867689,29.6430291 C89.0456267,32.3505912 86.5005182,34.4083384 83.2514437,35.8162708 L94.4607509,60.5092374 L81.4644527,60.5092374 L71.5547753,37.7657155 L65.5439873,37.7657155 L65.5439873,60.5092374 L53.4425383,60.5092374 L53.4425383,2.02589529 L72.9342782,2.02589529 Z M129.550756,2.02630143 L144.820053,60.5096436 L132.47357,60.5096436 L129.388302,47.107211 L113.060349,47.107211 L109.975082,60.5096436 L97.7084717,60.5096436 L113.305383,2.02630143 L129.550756,2.02630143 Z M166.12704,2.02589529 L179.123338,40.7711095 C179.394094,41.5305806 179.610699,42.4362602 179.773153,43.4922094 C179.935607,44.5481586 180.069631,45.5377726 180.179287,46.45699 C180.28759,47.594166 180.394538,48.7597715 180.504195,49.9497451 L181.641371,49.9497451 C181.369261,48.0003004 181.15401,46.2945362 180.990202,44.8324527 C180.827748,43.3703691 180.666648,41.7864453 180.504195,40.0806811 C180.341741,38.374917 180.25916,36.8180687 180.25916,35.4101364 L180.25916,2.02589529 L190.657553,2.02589529 L190.657553,60.5092374 L175.874263,60.5092374 L163.121646,21.7640233 C162.849536,20.8434521 162.605855,19.855192 162.390604,18.7992427 C162.172645,17.7432935 162.011545,16.7563871 161.903243,15.8344622 C161.793586,14.7514373 161.71236,13.6697663 161.659562,12.5853876 L160.521032,12.5853876 C160.737637,14.2099249 160.955596,15.8628916 161.172201,17.5402263 C161.280503,18.9495124 161.402344,20.4928228 161.536368,22.1701576 C161.671746,23.8488461 161.740789,25.4733834 161.740789,27.0424157 L161.740789,60.5092374 L151.34375,60.5092374 L151.34375,2.02589529 L166.12704,2.02589529 Z M260.567116,2.02616605 L260.567116,24.4434268 L274.375683,24.4434268 L274.375683,2.02616605 L286.559712,2.02616605 L286.559712,60.5095082 L274.375683,60.5095082 L274.375683,35.8165415 L260.567116,35.8165415 L260.567116,60.5095082 L248.383086,60.5095082 L248.383086,2.02616605 L260.567116,2.02616605 Z M24.120588,35.0850936 L16.3214553,35.0850936 L16.3214553,50.7618784 L24.120588,50.7618784 C26.8267964,50.7618784 28.9251571,50.0849878 30.4143162,48.7312068 C31.9034754,47.3787795 32.6494088,45.4550566 32.6494088,42.9640994 C32.6494088,40.4731423 31.9034754,38.5372353 30.4143162,37.1563786 C28.9251571,35.7755219 26.8267964,35.0850936 24.120588,35.0850936 Z M121.42807,10.1489878 L120.939355,10.1489878 C120.829699,11.1223564 120.697028,12.071357 120.534574,12.9905743 C120.424918,13.858348 120.303078,14.7653813 120.1677,15.713028 C120.033675,16.6606748 119.85633,17.5406325 119.639725,18.3515473 L115.253474,37.6036679 L127.112597,37.6036679 L122.645119,18.3515473 C122.482665,17.5406325 122.320212,16.6606748 122.159112,15.713028 C121.996658,14.7653813 121.859926,13.858348 121.751623,12.9905743 C121.643321,12.071357 121.535019,11.1223564 121.42807,10.1489878 Z M72.9342782,12.1792533 L65.5439873,12.1792533 L65.5439873,28.4246261 L72.9342782,28.4246261 C75.5876891,28.4246261 77.6725119,27.7084759 79.1901005,26.2721142 C80.7063353,24.8384601 81.4644527,22.9011994 81.4644527,20.4643934 C81.4644527,17.919285 80.6927975,15.903505 79.149487,14.4129921 C77.6061766,12.9238329 75.5348916,12.1792533 72.9342782,12.1792533 Z M23.9581343,11.7729836 L16.3214553,11.7729836 L16.3214553,25.3378699 L23.9581343,25.3378699 C26.2839302,25.3378699 28.139964,24.7164844 29.5208207,23.469652 C30.9030312,22.2241735 31.5921058,20.5725605 31.5921058,18.5148133 C31.5921058,16.4570661 30.9138614,14.818991 29.5614342,13.600588 C28.2076531,12.3821851 26.3394352,11.7729836 23.9581343,11.7729836 Z"/>
    <path fill="#E65343" fill-rule="nonzero" d="M29.12,147.714286 L29.12,143.122286 L10.36,143.122286 L10.36,129.234286 L27.16,129.234286 L27.16,124.642286 L10.36,124.642286 L10.36,111.986286 L29.12,111.986286 L29.12,107.394286 L5.32,107.394286 L5.32,147.714286 L29.12,147.714286 Z M52.36,111.594286 C53.4426667,111.594286 54.32,111.295619 54.992,110.698286 C55.664,110.100952 56,109.298286 56,108.290286 C56,107.282286 55.664,106.460952 54.992,105.826286 C54.32,105.191619 53.4426667,104.874286 52.36,104.874286 L52.36,104.874286 L51.24,104.874286 C50.1573333,104.874286 49.28,105.191619 48.608,105.826286 C47.936,106.460952 47.6,107.282286 47.6,108.290286 C47.6,109.335619 47.936,110.147619 48.608,110.726286 C49.28,111.304952 50.1573333,111.594286 51.24,111.594286 L51.24,111.594286 L52.36,111.594286 Z M64.4,147.714286 L64.4,143.122286 L55.16,143.122286 L55.16,116.914286 L40.32,116.914286 L40.32,121.506286 L50.12,121.506286 L50.12,143.122286 L38.92,143.122286 L38.92,147.714286 L64.4,147.714286 Z M77.168,147.714286 L77.168,128.394286 C77.168,126.004952 77.7933333,124.110286 79.044,122.710286 C80.2946667,121.310286 81.984,120.610286 84.112,120.610286 C86.24,120.610286 87.9013333,121.263619 89.096,122.570286 C90.2906667,123.876952 90.888,125.706286 90.888,128.058286 L90.888,128.058286 L90.888,147.714286 L95.928,147.714286 L95.928,127.218286 C95.928,125.650286 95.704,124.203619 95.256,122.878286 C94.808,121.552952 94.1453333,120.404952 93.268,119.434286 C92.3906667,118.463619 91.3266667,117.707619 90.076,117.166286 C88.8253333,116.624952 87.3973333,116.354286 85.792,116.354286 C83.552,116.354286 81.704,116.858286 80.248,117.866286 C78.792,118.874286 77.8213333,120.330286 77.336,122.234286 L77.336,122.234286 L76.888,122.234286 L76.888,116.914286 L72.128,116.914286 L72.128,147.714286 L77.168,147.714286 Z M115.64,148.274286 C117.917333,148.274286 119.802667,147.760952 121.296,146.734286 C122.789333,145.707619 123.778667,144.260952 124.264,142.394286 L124.264,142.394286 L124.712,142.394286 L124.712,147.714286 L129.472,147.714286 L129.472,107.394286 L124.432,107.394286 L124.432,116.914286 C124.432,117.399619 124.441333,117.950286 124.46,118.566286 C124.478667,119.182286 124.525333,119.770286 124.6,120.330286 L124.6,120.330286 L124.712,122.234286 L124.264,122.234286 C123.778667,120.367619 122.789333,118.920952 121.296,117.894286 C119.802667,116.867619 117.917333,116.354286 115.64,116.354286 C114.072,116.354286 112.653333,116.634286 111.384,117.194286 C110.114667,117.754286 109.032,118.547619 108.136,119.574286 C107.24,120.600952 106.54,121.860952 106.036,123.354286 C105.532,124.847619 105.28,126.527619 105.28,128.394286 L105.28,128.394286 L105.28,136.234286 C105.28,138.100952 105.532,139.780952 106.036,141.274286 C106.54,142.767619 107.24,144.027619 108.136,145.054286 C109.032,146.080952 110.114667,146.874286 111.384,147.434286 C112.653333,147.994286 114.072,148.274286 115.64,148.274286 Z M117.544,143.906286 C115.304,143.906286 113.54,143.215619 112.252,141.834286 C110.964,140.452952 110.32,138.586286 110.32,136.234286 L110.32,136.234286 L110.32,128.394286 C110.32,125.967619 110.954667,124.082286 112.224,122.738286 C113.493333,121.394286 115.266667,120.722286 117.544,120.722286 C119.634667,120.722286 121.305333,121.412952 122.556,122.794286 C123.806667,124.175619 124.432,126.042286 124.432,128.394286 L124.432,128.394286 L124.432,136.234286 C124.432,138.586286 123.806667,140.452952 122.556,141.834286 C121.305333,143.215619 119.634667,143.906286 117.544,143.906286 Z M144.368,147.714286 L144.368,128.394286 C144.368,126.004952 144.993333,124.110286 146.244,122.710286 C147.494667,121.310286 149.184,120.610286 151.312,120.610286 C153.44,120.610286 155.101333,121.263619 156.296,122.570286 C157.490667,123.876952 158.088,125.706286 158.088,128.058286 L158.088,128.058286 L158.088,147.714286 L163.128,147.714286 L163.128,127.218286 C163.128,125.575619 162.885333,124.091619 162.4,122.766286 C161.914667,121.440952 161.233333,120.302286 160.356,119.350286 C159.478667,118.398286 158.414667,117.660952 157.164,117.138286 C155.913333,116.615619 154.522667,116.354286 152.992,116.354286 C150.789333,116.354286 148.950667,116.867619 147.476,117.894286 C146.001333,118.920952 145.021333,120.367619 144.536,122.234286 L144.536,122.234286 L144.088,122.234286 C144.125333,121.599619 144.181333,120.964952 144.256,120.330286 C144.293333,119.807619 144.321333,119.238286 144.34,118.622286 C144.358667,118.006286 144.368,117.436952 144.368,116.914286 L144.368,116.914286 L144.368,107.394286 L139.328,107.394286 L139.328,147.714286 L144.368,147.714286 Z M184.8,148.274286 C188.645333,148.274286 191.66,147.200952 193.844,145.054286 C196.028,142.907619 197.12,139.967619 197.12,136.234286 L197.12,136.234286 L197.12,128.338286 C197.12,124.604952 196.018667,121.674286 193.816,119.546286 C191.613333,117.418286 188.608,116.354286 184.8,116.354286 C182.896,116.354286 181.188,116.634286 179.676,117.194286 C178.164,117.754286 176.876,118.556952 175.812,119.602286 C174.748,120.647619 173.926667,121.907619 173.348,123.382286 C172.769333,124.856952 172.48,126.527619 172.48,128.394286 L172.48,128.394286 L172.48,136.234286 C172.48,138.063619 172.769333,139.724952 173.348,141.218286 C173.926667,142.711619 174.748,143.980952 175.812,145.026286 C176.876,146.071619 178.164,146.874286 179.676,147.434286 C181.188,147.994286 182.896,148.274286 184.8,148.274286 Z M184.8,143.794286 C182.522667,143.794286 180.74,143.122286 179.452,141.778286 C178.164,140.434286 177.52,138.586286 177.52,136.234286 L177.52,136.234286 L177.52,128.394286 C177.52,126.042286 178.173333,124.194286 179.48,122.850286 C180.786667,121.506286 182.56,120.834286 184.8,120.834286 C187.04,120.834286 188.813333,121.506286 190.12,122.850286 C191.426667,124.194286 192.08,126.042286 192.08,128.394286 L192.08,128.394286 L192.08,136.234286 C192.08,138.586286 191.426667,140.434286 190.12,141.778286 C188.813333,143.122286 187.04,143.794286 184.8,143.794286 Z M221.368,147.714286 L232.4,116.914286 L226.912,116.914286 L219.8,138.698286 C219.501333,139.556952 219.296,140.312952 219.184,140.966286 C219.072,141.619619 218.978667,142.170286 218.904,142.618286 C218.829333,143.178286 218.810667,143.663619 218.848,144.074286 L218.848,144.074286 L218.344,144.074286 C218.344,143.663619 218.306667,143.178286 218.232,142.618286 C218.157333,142.170286 218.045333,141.619619 217.896,140.966286 C217.746667,140.312952 217.522667,139.556952 217.224,138.698286 L217.224,138.698286 L209.72,116.914286 L204.4,116.914286 L215.656,147.714286 L221.368,147.714286 Z M252,148.274286 C255.098667,148.274286 257.74,147.602286 259.924,146.258286 C262.108,144.914286 263.517333,143.066286 264.152,140.714286 L264.152,140.714286 L259.112,140.714286 C258.514667,141.722286 257.6,142.487619 256.368,143.010286 C255.136,143.532952 253.68,143.794286 252,143.794286 C249.722667,143.794286 247.94,143.122286 246.652,141.778286 C245.364,140.434286 244.72,138.586286 244.72,136.234286 L244.72,136.234286 L244.72,133.770286 L264.32,133.770286 L264.32,128.114286 C264.32,124.455619 263.228,121.580952 261.044,119.490286 C258.86,117.399619 255.845333,116.354286 252,116.354286 C248.154667,116.354286 245.14,117.399619 242.956,119.490286 C240.772,121.580952 239.68,124.455619 239.68,128.114286 L239.68,128.114286 L239.68,136.514286 C239.68,140.172952 240.772,143.047619 242.956,145.138286 C245.14,147.228952 248.154667,148.274286 252,148.274286 Z M259.28,129.570286 L244.72,129.570286 L244.72,128.114286 C244.72,125.799619 245.354667,124.007619 246.624,122.738286 C247.893333,121.468952 249.685333,120.834286 252,120.834286 C254.314667,120.834286 256.106667,121.468952 257.376,122.738286 C258.645333,124.007619 259.28,125.799619 259.28,128.114286 L259.28,128.114286 L259.28,129.570286 Z M278.768,147.714286 L278.768,128.394286 C278.768,126.004952 279.393333,124.110286 280.644,122.710286 C281.894667,121.310286 283.584,120.610286 285.712,120.610286 C287.84,120.610286 289.501333,121.263619 290.696,122.570286 C291.890667,123.876952 292.488,125.706286 292.488,128.058286 L292.488,128.058286 L292.488,147.714286 L297.528,147.714286 L297.528,127.218286 C297.528,125.650286 297.304,124.203619 296.856,122.878286 C296.408,121.552952 295.745333,120.404952 294.868,119.434286 C293.990667,118.463619 292.926667,117.707619 291.676,117.166286 C290.425333,116.624952 288.997333,116.354286 287.392,116.354286 C285.152,116.354286 283.304,116.858286 281.848,117.866286 C280.392,118.874286 279.421333,120.330286 278.936,122.234286 L278.936,122.234286 L278.488,122.234286 L278.488,116.914286 L273.728,116.914286 L273.728,147.714286 L278.768,147.714286 Z"/>
  </g>
</svg>
